<?xml version="1.0" encoding="UTF-8" standalone="no"?>
<!-- Created with Inkscape (http://www.inkscape.org/) -->

<svg
   width="200mm"
   height="120mm"
   viewBox="0 0 200 120"
   version="1.1"
   id="svg1"
   inkscape:version="1.4 (86a8ad7, 2024-10-11)"
   sodipodi:docname="OM008016BW.svg"
   xmlns:inkscape="http://www.inkscape.org/namespaces/inkscape"
   xmlns:sodipodi="http://sodipodi.sourceforge.net/DTD/sodipodi-0.dtd"
   xmlns="http://www.w3.org/2000/svg"
   xmlns:svg="http://www.w3.org/2000/svg">
  <sodipodi:namedview
     id="namedview1"
     pagecolor="#ffffff"
     bordercolor="#000000"
     borderopacity="0.25"
     inkscape:showpageshadow="2"
     inkscape:pageopacity="0.0"
     inkscape:pagecheckerboard="0"
     inkscape:deskcolor="#d1d1d1"
     inkscape:document-units="mm"
     inkscape:zoom="0.58394342"
     inkscape:cx="342.49893"
     inkscape:cy="112.1684"
     inkscape:window-width="1920"
     inkscape:window-height="1009"
     inkscape:window-x="1912"
     inkscape:window-y="-8"
     inkscape:window-maximized="1"
     inkscape:current-layer="layer1" />
  <defs
     id="defs1" />
  <g
     inkscape:label="Layer 1"
     inkscape:groupmode="layer"
     id="layer1"
     transform="translate(-5.0270797,-88.370825)">
    <rect
       style="fill:none;stroke:#ff0000;stroke-width:0.0999334"
       id="rect1-1"
       width="199.90007"
       height="119.90007"
       x="5.0770464"
       y="88.420792"
       ry="5.9950037" />
    <g
       id="g1"
       transform="translate(0,1.8792263)">
      <path
         id="path876-2-5-0-8"
         d="m 46.759599,195.63085 c -0.056,-0.018 -0.2707,-0.059 -0.477,-0.092 -0.619,-0.097 -1.5194,-0.7507 -2.5047,-1.8172 -1.03422,-1.1194 -1.65612,-1.5016 -2.44312,-1.5016 -0.7516,0 -1.3445,0.558 -1.3445,1.2654 v 0.3143 l -0.2223,-0.2098 c -0.1646,-0.1554 -0.2337,-0.3591 -0.2664,-0.7861 l -0.044,-0.5764 -0.345,0.2483 c -0.2146,0.1544 -0.5276,0.267 -0.8279,0.2976 l -0.4828,0.049 0.2851,-0.2532 c 0.6321,-0.5614 0.7151,-1.3179 0.207,-1.8878 -0.5127,-0.575 -0.9916,-0.7084 -3.4385,-0.958 -1.3408,-0.1368 -2.0377,-0.4305 -2.7188,-1.1461 -0.6056,-0.6361 -1.0316,-1.3892 -1.2072,-2.1341 -0.1965,-0.8333 -0.081,-2.4422 0.25,-3.4903 0.2752,-0.8711 1.0073,-2.4021 1.2032,-2.5164 0.064,-0.038 0.076,-0.015 0.029,0.056 -0.043,0.065 -0.074,0.3804 -0.069,0.7008 0.011,0.731 0.3085,1.3415 0.8109,1.6637 0.4223,0.2708 0.6943,0.2969 0.9983,0.096 0.2706,-0.1788 0.3415,-0.108 0.3415,0.3415 0,0.2446 -0.082,0.4527 -0.2541,0.6459 -0.2979,0.334 -0.9971,0.6249 -1.309,0.5445 -0.2134,-0.055 -0.2139,-0.053 -0.021,0.093 0.2902,0.2189 0.9486,0.1803 1.5684,-0.092 0.2995,-0.1315 0.5868,-0.2392 0.6384,-0.2392 0.052,0 0.2816,0.1173 0.511,0.2605 l 0.4172,0.2606 0.2423,-0.2659 c 0.343,-0.3763 0.3001,-0.5422 -0.2452,-0.9492 -0.5679,-0.4238 -2.4125,-2.1047 -3.1578,-2.8775 l -0.5262,-0.5456 -0.6372,0.237 c -1.259,0.4684 -2.1068,0.6322 -3.5389,0.6837 -2.1894,0.079 -3.2713,-0.2765 -4.4711,-1.4685 -0.9433,-0.9371 -1.0434,-1.2404 -1.1231,-3.4043 -0.054,-1.4746 -0.089,-1.7301 -0.2846,-2.0803 -0.4521,-0.8107 -1.1311,-1.0604 -1.9127,-0.7033 -0.2583,0.118 -0.4938,0.2739 -0.5232,0.3463 -0.029,0.072 -0.1,0.1318 -0.1559,0.1318 -0.1926,0 0.032,-0.7153 0.3395,-1.0807 l 0.3031,-0.3602 -0.4883,-3e-4 c -0.3282,-2e-4 -0.6051,-0.07 -0.8446,-0.2129 -0.3487,-0.2081 -0.3509,-0.2132 -0.1017,-0.2427 0.5455,-0.065 0.7213,-0.1336 1.0638,-0.4174 0.4098,-0.3396 0.5304,-0.7543 0.3744,-1.2876 -0.1667,-0.5699 -0.5636,-1.0275 -1.531,-1.7655 -1.9207,-1.4652 -2.1976,-1.9267 -2.1976,-3.6625 0,-0.9668 0.032,-1.1768 0.2582,-1.6819 0.6839,-1.5291 2.1426,-2.994 4.2187,-4.2365 l 0.3033,-0.1815 -0.2747,0.3413 c -0.5986,0.7438 -0.7652,1.7219 -0.4082,2.3964 0.1437,0.2714 0.2615,0.3537 0.6107,0.4267 0.528,0.1105 0.546,0.2539 0.086,0.6876 -0.3002,0.2833 -0.4117,0.3262 -0.8399,0.3232 -0.2715,0 -0.6082,-0.065 -0.7481,-0.1407 -0.3513,-0.1894 -0.433,-0.1769 -0.306,0.047 0.1545,0.2725 0.6322,0.4798 1.4117,0.6125 0.6674,0.1137 0.6785,0.1206 0.9067,0.5683 0.2655,0.521 0.5583,0.597 0.9144,0.2371 l 0.2139,-0.2161 -0.4489,-1.4409 c -0.766,-2.459 -1.376,-5.1828 -1.7778,-7.938 -0.2244,-1.5383 -0.3032,-1.7162 -0.7604,-1.7162 -0.3314,0 -0.459,0.1895 -0.459,0.6816 0,0.4333 -0.019,0.4627 -0.4859,0.7454 -0.6802,0.4119 -1.0274,0.7821 -1.0975,1.1701 l -0.06,0.3328 0.1786,-0.2563 c 0.4482,-0.6434 1.5581,-0.8652 2.0424,-0.4082 l 0.2629,0.2481 -0.3119,0.179 c -0.4344,0.2493 -0.5525,0.5014 -0.4721,1.0074 0.094,0.5883 0.5613,1.2428 1.1327,1.5848 0.5625,0.3366 0.4327,0.3637 -0.6825,0.1423 -1.8659,-0.3705 -3.4987,-1.0933 -4.5559,-2.0171 -0.803,-0.7015 -1.1461,-1.2459 -1.455,-2.3082 -0.3017,-1.0376 -0.2003,-1.5152 0.6926,-3.2609 0.6337,-1.2391 0.689,-1.3973 0.689,-1.9716 0,-0.7161 -0.2389,-1.1398 -0.7566,-1.3421 -0.3096,-0.1211 -1.0258,-0.099 -1.3659,0.043 -0.179,0.074 -0.1804,0.064 -0.028,-0.2146 0.1689,-0.3082 0.7355,-0.6957 1.0172,-0.6957 0.091,0 0.1662,-0.043 0.1662,-0.096 0,-0.053 -0.075,-0.096 -0.1662,-0.096 -0.2817,0 -0.8483,-0.3876 -1.0172,-0.6957 -0.1525,-0.2782 -0.1511,-0.289 0.028,-0.2146 0.3401,0.1415 1.0563,0.1641 1.3659,0.043 0.5177,-0.2023 0.7566,-0.6261 0.7566,-1.3421 0,-0.5744 -0.055,-0.7325 -0.689,-1.9716 -0.8929,-1.7457 -0.9943,-2.2233 -0.6926,-3.2609 0.3091,-1.0631 0.6521,-1.6067 1.4575,-2.3105 1.1381,-0.9943 2.8873,-1.729 4.9883,-2.0949 0.4339,-0.076 0.7889,-0.1274 0.7889,-0.1153 0,0.012 -0.2287,0.1563 -0.5082,0.3203 -0.6007,0.3524 -1.0696,0.9968 -1.1658,1.6023 -0.081,0.5062 0.038,0.7581 0.4729,1.0078 l 0.3127,0.1794 -0.2832,0.2477 c -0.5129,0.4486 -1.3584,0.2962 -1.9376,-0.3493 l -0.2833,-0.3156 0.069,0.3327 c 0.081,0.3907 0.4325,0.762 1.1067,1.1702 0.4668,0.2827 0.4859,0.312 0.4859,0.7454 0,0.4921 0.1276,0.6816 0.459,0.6816 0.4616,0 0.5306,-0.1695 0.8019,-1.9693 0.4278,-2.8372 1.1738,-6.0525 1.9392,-8.3574 l 0.2552,-0.7685 -0.242,-0.2288 c -0.345,-0.3264 -0.6673,-0.2236 -0.9236,0.2946 -0.1971,0.3983 -0.2221,0.4133 -0.8785,0.5243 -0.7789,0.1317 -1.257,0.3389 -1.4117,0.6117 -0.127,0.2239 -0.045,0.2365 0.3059,0.047 0.562,-0.3032 1.5892,-0.081 1.8182,0.3934 0.1698,0.3516 0.1452,0.4231 -0.1453,0.4231 -0.3966,0 -0.6395,0.1634 -0.8078,0.5435 -0.3144,0.7101 -0.1501,1.6092 0.4239,2.3193 l 0.2647,0.3275 -0.4193,-0.2263 c -0.7486,-0.404 -2.1816,-1.5548 -2.7938,-2.2435 -1.2303,-1.3843 -1.6513,-2.4217 -1.5762,-3.8843 0.077,-1.4984 0.4065,-1.9964 2.2355,-3.3789 0.4856,-0.3671 1.0218,-0.8652 1.1914,-1.1068 0.776,-1.1057 0.3453,-2.1621 -0.9547,-2.3417 l -0.4072,-0.056 0.3563,-0.2113 c 0.2395,-0.142 0.5177,-0.2114 0.8488,-0.2117 l 0.4926,-3e-4 -0.2608,-0.2926 c -0.2658,-0.2981 -0.5501,-1.0086 -0.4437,-1.109 0.032,-0.03 0.1581,0.038 0.2797,0.1532 0.7756,0.732 1.828,0.5461 2.3655,-0.4178 0.1952,-0.3502 0.2302,-0.6056 0.2845,-2.0803 0.08,-2.1637 0.1799,-2.4672 1.1228,-3.4039 1.2065,-1.1986 2.2703,-1.5481 4.4715,-1.4689 1.4349,0.052 2.3883,0.2361 3.5779,0.6922 l 0.5946,0.228 0.9166,-0.9351 c 0.7831,-0.799 2.8174,-2.5993 3.1683,-2.804 0.1703,-0.099 0,-0.6509 -0.2318,-0.7701 -0.165,-0.083 -0.28,-0.053 -0.6063,0.1604 l -0.4026,0.2633 -0.6599,-0.2557 c -0.747,-0.2895 -1.3383,-0.3272 -1.6288,-0.1038 -0.1704,0.131 -0.1729,0.1446 -0.018,0.099 0.3363,-0.1 0.8103,0.066 1.2065,0.4212 0.3306,0.2968 0.3956,0.4181 0.3956,0.7383 0,0.4799 -0.05,0.5256 -0.3889,0.3585 -0.4388,-0.2161 -0.6805,-0.1604 -1.1253,0.2594 -0.5018,0.4735 -0.6555,0.9032 -0.6081,1.6993 0.035,0.5799 0.031,0.5898 -0.1394,0.3793 -0.3043,-0.3757 -0.9037,-1.7939 -1.1579,-2.7395 -0.1757,-0.6537 -0.2446,-1.1727 -0.2438,-1.8357 0,-1.4841 0.3288,-2.3415 1.2747,-3.3435 0.7142,-0.7567 1.3836,-1.0449 2.7507,-1.1843 2.4468,-0.2496 2.9257,-0.383 3.4384,-0.958 0.5082,-0.5699 0.4252,-1.3264 -0.207,-1.8878 l -0.2851,-0.2532 0.4829,0.049 c 0.3003,0.031 0.6133,0.1431 0.8278,0.2976 l 0.345,0.2483 0.044,-0.5764 c 0.033,-0.426998 0.1018,-0.630798 0.2664,-0.786098 l 0.2223,-0.2098 v 0.3143 c 0,0.707398 0.5929,1.265398 1.3445,1.265398 0.7665,0 1.4081,-0.3848 2.38222,-1.428698 1.4797,-1.5858 2.0511,-1.9133 3.4916,-2.0014 0.7372,-0.045 1.0231,-0.019 1.6026,0.1473 1.3345,0.3826 2.5052,1.2844 3.4508,2.658398 0.4935,0.7171 1.0508,1.799 1.2123,2.3535 0.064,0.2213 0.049,0.2156 -0.1997,-0.072 -0.8756,-1.0142 -2.6253,-1.0871 -2.8507,-0.1188 -0.075,0.3208 -0.087,0.327 -0.3617,0.1881 -0.4992,-0.2521 -0.6638,-1.2364 -0.3008,-1.7983 0.1553,-0.2404 0.169,-0.3122 0.06,-0.3122 -0.2538,0 -0.6313,0.5391 -0.816,1.1652 -0.22,0.746 -0.276,0.8154 -0.7213,0.8943 -0.4378,0.078 -0.5579,0.3931 -0.2941,0.7729 0.1571,0.2263 0.2217,0.249 0.543,0.1907 2.571,-0.4669 4.5802,-0.6014 6.7014,-0.4485 1.4243,0.1027 2.7008,0.2613 3.6468,0.4532 0.2655,0.054 0.3403,0.024 0.4922,-0.1944 0.2563,-0.3692 0.1446,-0.6877 -0.2708,-0.7715 -0.4698,-0.095 -0.5518,-0.1833 -0.6917,-0.7458 -0.1464,-0.5889 -0.2527,-0.8076 -0.5349,-1.1 -0.347,-0.3595 -0.5118,-0.274 -0.2751,0.1427 0.3503,0.6167 0.1993,1.4997 -0.2996,1.7517 -0.2708,0.1368 -0.2801,0.1325 -0.3584,-0.1653 -0.1304,-0.4958 -0.4352,-0.6964 -1.0579,-0.6964 -0.6933,0 -1.3217,0.2697 -1.7548,0.7531 -0.2753,0.3072 -0.3059,0.3213 -0.243,0.1114 0.158,-0.5268 0.7111,-1.621 1.1411,-2.2574 1.2197,-1.805198 3.0267,-2.929898 4.7073,-2.929898 1.5605,0 2.3788,0.4174 3.823,1.9499 1.0307,1.093698 1.6862,1.506798 2.3896,1.505998 0.2519,-3e-4 0.5712,-0.054 0.7095,-0.1206 0.3691,-0.1763 0.7156,-0.715298 0.7156,-1.113398 v -0.3434 l 0.2222,0.2098 c 0.1647,0.1554 0.2337,0.3591 0.2665,0.786098 l 0.044,0.5764 0.3449,-0.2483 c 0.2176,-0.1566 0.5233,-0.2654 0.8279,-0.2946 l 0.4829,-0.046 -0.2913,0.264 c -0.6313,0.5726 -0.7095,1.3006 -0.2008,1.871 0.4991,0.5599 1.2649,0.7911 3.0316,0.9155 1.7211,0.1212 2.407,0.4004 3.2372,1.3174 0.5507,0.6083 0.9353,1.281 1.0866,1.9005 0.1918,0.7853 0.1319,2.1935 -0.1354,3.1882 -0.2542,0.9456 -0.8536,2.3638 -1.1579,2.7395 -0.1704,0.2105 -0.174,0.2006 -0.1394,-0.3793 0.047,-0.7795 -0.1013,-1.2116 -0.5632,-1.6475 -0.4617,-0.4358 -0.7913,-0.5282 -1.1639,-0.3264 -0.3409,0.1846 -0.3952,0.1399 -0.3952,-0.3251 0,-0.6476 0.9712,-1.3678 1.5926,-1.1812 0.1758,0.053 0.1752,0.046 -0.01,-0.095 -0.2895,-0.2225 -0.8812,-0.1859 -1.6195,0.1002 l -0.6505,0.2521 -0.3816,-0.2448 c -0.4659,-0.2987 -0.773,-0.2297 -0.9046,0.2033 -0.081,0.2677 -0.056,0.3233 0.2539,0.5643 0.7193,0.5587 1.6052,1.355 2.7187,2.4436 l 1.1529,1.1273 0.4758,-0.1932 c 1.0904,-0.4428 2.2673,-0.6751 3.6829,-0.7271 2.1869,-0.08 3.2708,0.2752 4.4687,1.4653 0.939,0.9328 1.0252,1.1909 1.1229,3.3586 0.082,1.8182 0.1306,2.0395 0.5542,2.5146 0.5407,0.6064 1.223,0.6452 2.0003,0.1139 l 0.4344,-0.297 -0.062,0.3629 c -0.034,0.1995 -0.2037,0.5287 -0.3763,0.7314 l -0.3139,0.3686 h 0.4883 c 0.3282,3e-4 0.6052,0.07 0.8446,0.2128 0.3487,0.2081 0.3509,0.2133 0.1018,0.2428 -0.5455,0.065 -0.7213,0.1336 -1.0638,0.4173 -0.4098,0.3396 -0.5305,0.7544 -0.3744,1.2876 0.1676,0.5729 0.5907,1.0631 1.5315,1.7742 1.8188,1.3749 2.1493,1.8754 2.2262,3.3719 0.075,1.4621 -0.3478,2.5049 -1.5727,3.8778 -0.6148,0.6893 -2.0634,1.8546 -2.7969,2.2501 l -0.4197,0.2262 0.2647,-0.3276 c 0.3915,-0.4842 0.5764,-0.9712 0.5764,-1.5178 0,-0.8628 -0.3442,-1.3449 -0.9603,-1.3449 -0.3666,0 -0.3348,-0.238 0.085,-0.634 0.2987,-0.2819 0.4136,-0.3266 0.8398,-0.326 0.2715,2e-4 0.6249,0.065 0.7852,0.1441 0.3861,0.19 0.4025,0.1834 0.2148,-0.087 -0.1944,-0.28 -0.6042,-0.4489 -1.4185,-0.5846 -0.5984,-0.1 -0.6209,-0.1144 -0.8457,-0.5563 -0.2655,-0.5217 -0.5583,-0.5978 -0.9144,-0.2377 l -0.2137,0.216 0.4058,1.2969 c 0.7741,2.4737 1.4225,5.3521 1.8206,8.0822 0.2244,1.5383 0.3032,1.7162 0.7605,1.7162 0.3324,0 0.4589,-0.1898 0.4589,-0.6887 0,-0.4481 0.012,-0.4653 0.538,-0.7829 0.6742,-0.4071 1.0915,-0.8679 1.088,-1.2015 v -0.2568 l -0.1685,0.2563 c -0.4204,0.6396 -1.5473,0.8659 -2.0323,0.4082 l -0.2629,-0.2482 0.3205,-0.1839 c 0.4644,-0.2665 0.5736,-0.5525 0.4258,-1.1153 -0.1677,-0.6387 -0.5431,-1.1416 -1.1015,-1.4758 -0.4032,-0.2413 -0.4362,-0.2828 -0.224,-0.2809 0.4221,0 1.9429,0.3514 2.6732,0.6115 2.4911,0.8871 3.8173,2.1247 4.308,4.0202 0.2311,0.8927 0.1015,1.4264 -0.7524,3.0992 -0.6309,1.2359 -0.6865,1.3954 -0.6865,1.9692 0,0.7161 0.2388,1.1399 0.7566,1.3422 0.3096,0.121 1.0258,0.099 1.3659,-0.043 0.1803,-0.075 0.1812,-0.065 0.021,0.2281 -0.1778,0.3244 -0.6999,0.6812 -0.9978,0.6818 -0.098,2e-4 -0.1782,0.043 -0.1782,0.096 0,0.053 0.08,0.096 0.1782,0.096 0.2979,0 0.82,0.3574 0.9978,0.6819 0.1607,0.2932 0.1598,0.303 -0.021,0.2273 -0.1036,-0.043 -0.4005,-0.097 -0.6596,-0.1185 -0.6625,-0.055 -1.0712,0.1657 -1.3313,0.7206 -0.3139,0.6695 -0.206,1.1757 0.5782,2.7124 0.8305,1.6273 0.959,2.1657 0.7291,3.0539 -0.275,1.0621 -0.6985,1.7613 -1.4791,2.4421 -1.0735,0.9361 -2.7415,1.6803 -4.5871,2.0467 -1.115,0.2213 -1.2474,0.1949 -0.691,-0.1381 0.5584,-0.3342 0.9338,-0.8371 1.1015,-1.4757 0.1478,-0.5628 0.039,-0.8488 -0.4258,-1.1154 l -0.3205,-0.1839 0.2629,-0.2481 c 0.485,-0.4577 1.6119,-0.2314 2.0323,0.4082 l 0.1685,0.2563 v -0.2568 c 0,-0.3337 -0.4138,-0.7945 -1.088,-1.2015 -0.5261,-0.3176 -0.538,-0.3349 -0.538,-0.7829 0,-0.4989 -0.1265,-0.6887 -0.4589,-0.6887 -0.4581,0 -0.5361,0.177 -0.7613,1.7291 -0.3892,2.6822 -1.0252,5.4949 -1.8245,8.0692 l -0.4027,1.2968 0.2146,0.2162 c 0.3572,0.3599 0.6495,0.2839 0.9151,-0.2378 0.2248,-0.4419 0.2473,-0.4567 0.8457,-0.5564 0.8143,-0.1356 1.2241,-0.3045 1.4185,-0.5845 0.1877,-0.2703 0.1713,-0.2769 -0.2148,-0.087 -0.1603,0.079 -0.5137,0.1438 -0.7852,0.1441 -0.4262,3e-4 -0.5411,-0.044 -0.8398,-0.326 -0.4596,-0.4337 -0.4415,-0.5772 0.086,-0.6876 0.5438,-0.1138 0.7768,-0.5061 0.784,-1.3201 0,-0.5809 -0.1285,-0.925 -0.5804,-1.4943 l -0.2558,-0.3223 0.4192,0.2263 c 0.7486,0.404 2.1817,1.5548 2.7938,2.2435 1.2304,1.3843 1.6514,2.4217 1.5762,3.8843 -0.077,1.4965 -0.4073,1.997 -2.2261,3.3718 -0.9408,0.7112 -1.364,1.2014 -1.5316,1.7743 -0.156,0.5332 -0.035,0.948 0.3745,1.2876 0.3424,0.2837 0.5183,0.3527 1.0638,0.4173 0.249,0.029 0.2469,0.035 -0.1018,0.2428 -0.2395,0.1429 -0.5164,0.2127 -0.8446,0.2129 l -0.4883,3e-4 0.3031,0.3602 c 0.3074,0.3654 0.5321,1.0807 0.3394,1.0807 -0.056,0 -0.1294,-0.067 -0.1628,-0.149 -0.033,-0.082 -0.2719,-0.2372 -0.5303,-0.3451 -0.5624,-0.2348 -1.0171,-0.1845 -1.4516,0.1606 -0.5635,0.4474 -0.6585,0.7932 -0.7388,2.687 -0.092,2.1675 -0.1771,2.4236 -1.1183,3.3586 -1.1979,1.1901 -2.2817,1.5455 -4.4687,1.4653 -1.4202,-0.052 -2.6298,-0.292 -3.6651,-0.7269 l -0.4581,-0.1924 -1.1198,1.0817 c -0.6158,0.595 -1.5724,1.4716 -2.1256,1.9481 -0.9556,0.823 -1.0013,0.8799 -0.9109,1.1355 0.1436,0.4067 0.4462,0.4638 0.8876,0.1674 l 0.3708,-0.249 0.662,0.2566 c 0.7491,0.2903 1.3403,0.3282 1.6311,0.1047 0.184,-0.1415 0.1847,-0.1481 0.01,-0.095 -0.6214,0.1866 -1.5926,-0.5336 -1.5926,-1.1812 0,-0.465 0.054,-0.5097 0.3952,-0.3251 0.3726,0.2018 0.7022,0.1094 1.164,-0.3263 0.4619,-0.4359 0.6096,-0.8681 0.5631,-1.6476 -0.035,-0.5799 -0.031,-0.5897 0.1395,-0.3793 0.3023,0.3734 0.9025,1.7905 1.1652,2.7512 0.2164,0.7913 0.2472,1.0878 0.2157,2.0759 -0.034,1.0571 -0.064,1.207 -0.3614,1.8073 -0.3726,0.7513 -1.1199,1.6218 -1.6771,1.9537 -0.5067,0.3019 -1.2616,0.4792 -2.3729,0.5575 -1.7668,0.1244 -2.5325,0.3556 -3.0317,0.9155 -0.5087,0.5705 -0.4305,1.2984 0.2009,1.871 l 0.2912,0.2641 -0.4829,-0.046 c -0.3045,-0.029 -0.6102,-0.138 -0.8278,-0.2946 l -0.345,-0.2484 -0.044,0.5764 c -0.033,0.427 -0.1018,0.6308 -0.2664,0.7862 l -0.2223,0.2097 v -0.3434 c 0,-0.3981 -0.3464,-0.9371 -0.7156,-1.1134 -0.1383,-0.066 -0.4575,-0.1203 -0.7095,-0.1206 -0.6924,0 -1.3539,0.4109 -2.3395,1.4561 -1.5998,1.6966 -2.0677,1.9415 -3.7172,1.946 -0.9323,0 -1.2161,-0.034 -1.6951,-0.2151 -1.2911,-0.4894 -2.5519,-1.6025 -3.4205,-3.0196 -0.2524,-0.4119 -0.7823,-1.544 -0.8887,-1.8988 -0.063,-0.2099 -0.032,-0.1958 0.243,0.1114 0.4204,0.4692 1.0642,0.7531 1.7079,0.7531 0.5575,0 1.0491,-0.2613 1.052,-0.5593 0,-0.3096 0.1557,-0.4314 0.3916,-0.3123 0.518,0.2616 0.6906,1.2355 0.3205,1.8082 -0.1553,0.2404 -0.169,0.3123 -0.06,0.3123 0.2538,0 0.6314,-0.5392 0.816,-1.1653 0.2201,-0.746 0.2761,-0.8154 0.7213,-0.8942 0.438,-0.078 0.5579,-0.3931 0.2939,-0.7734 -0.1416,-0.2039 -0.2331,-0.2457 -0.4413,-0.2015 -0.1444,0.031 -0.8581,0.1426 -1.5859,0.2486 -2.897,0.4223 -5.782,0.3422 -8.8638,-0.2458 -0.2635,-0.05 -0.3415,-0.019 -0.4921,0.1981 -0.2564,0.3693 -0.1446,0.6878 0.2707,0.7716 0.4699,0.095 0.5519,0.1832 0.6917,0.7458 0.1464,0.5889 0.2528,0.8076 0.5349,1.0999 0.3295,0.3414 0.5145,0.2765 0.2738,-0.096 -0.363,-0.5619 -0.1983,-1.5462 0.3009,-1.7983 0.2751,-0.1389 0.287,-0.1327 0.3616,0.1881 0.2188,0.9399 1.9531,0.892 2.7998,-0.077 0.3738,-0.4279 0.3787,-0.3703 0.038,0.4464 -0.9524,2.2811 -2.7297,4.0354 -4.5525,4.4934 -0.4681,0.1176 -1.6833,0.1714 -1.9493,0.086 z m 2.0852,-1.8785 0.3578,-0.1786 h -0.4209 c -2.472,-0.025 -3.6726,-2.7196 -1.6925,-3.7987 0.2909,-0.1585 0.5301,-0.3098 0.5316,-0.3363 0,-0.026 -0.4419,-0.1692 -0.9854,-0.3173 -2.9488,-0.8038 -6.57732,-2.5638 -9.03732,-4.3838 l -0.6107,-0.4518 v 0.8305 c 0,0.7678 -0.022,0.858 -0.2944,1.195 -0.1648,0.204 -0.4973,0.4492 -0.7555,0.557 -0.9222,0.3849 -2.3362,0.033 -3.0798,-0.7659 -0.283,-0.3042 -0.2984,-0.3092 -0.2984,-0.097 0,0.4078 0.6237,1.2429 1.1627,1.5566 0.4516,0.263 0.5835,0.2917 1.3393,0.2917 0.7798,0 0.8656,-0.02 1.2295,-0.2916 0.2157,-0.1608 0.5053,-0.5162 0.6457,-0.7922 0.1399,-0.2753 0.2865,-0.5007 0.3256,-0.5009 0.039,-2e-4 0.1995,0.1583 0.3563,0.3523 0.2268,0.2806 0.2847,0.4525 0.2832,0.8406 0,0.2683 -0.04,0.5635 -0.087,0.6559 -0.074,0.1465 -0.029,0.1681 0.3515,0.1681 0.5667,0 1.2105,0.2994 1.6652,0.7744 0.4136,0.432 0.4765,0.8565 0.1847,1.2456 -0.1174,0.1565 -0.1796,0.4234 -0.1825,0.7828 0,0.4635 0.015,0.5195 0.1232,0.3734 0.07,-0.095 0.2667,-0.2262 0.4369,-0.2927 0.1702,-0.067 0.3095,-0.1827 0.3095,-0.2582 0,-0.2784 0.3046,-0.6804 0.6042,-0.7975 0.5842,-0.2283 1.67402,0.1178 2.22062,0.7052 l 0.3308,0.3556 0.3105,-0.3337 c 0.3657,-0.3931 0.8883,-0.581 1.3757,-0.4947 0.3815,0.067 0.4327,0.1568 0.196,0.3422 -0.2323,0.1819 -0.4845,1.1025 -0.4016,1.4657 0.2073,0.9088 0.9018,1.5599 1.9295,1.8091 0.4217,0.1023 1.1481,0.01 1.5762,-0.2066 z m 11.8498,-0.011 c 0.7415,-0.351 1.1603,-0.8524 1.3293,-1.5915 0.083,-0.3633 -0.169,-1.2838 -0.4014,-1.4658 -0.2367,-0.1853 -0.1856,-0.2746 0.1959,-0.3421 0.5738,-0.1016 1.2783,0.206 1.56,0.681 0.074,0.1248 0.1665,0.077 0.5429,-0.2778 0.6056,-0.5715 1.4579,-0.8298 2.072,-0.6275 0.3284,0.108 0.434,0.2062 0.5572,0.5177 0.084,0.2113 0.1867,0.3981 0.2293,0.4152 0.043,0.017 0.2277,0.1272 0.4115,0.2449 l 0.3342,0.214 v -0.4851 c 0,-0.3075 -0.065,-0.5721 -0.1781,-0.7226 -0.5676,-0.7568 0.4169,-1.8991 1.7249,-2.0015 0.466,-0.036 0.5392,-0.067 0.4714,-0.1989 -0.044,-0.086 -0.081,-0.3753 -0.082,-0.6437 0,-0.388 0.056,-0.56 0.2832,-0.8406 0.1568,-0.1939 0.3171,-0.3524 0.3563,-0.3522 0.039,2e-4 0.1857,0.2256 0.3256,0.5009 0.375,0.7377 0.8676,1.0656 1.6733,1.114 1.132,0.068 2.027,-0.3914 2.4559,-1.2609 0.3538,-0.717 0.3274,-0.9267 -0.064,-0.5063 -0.1715,0.1843 -0.5911,0.4668 -0.9324,0.6277 -1.0922,0.5151 -2.2667,0.3385 -2.8904,-0.4345 -0.2713,-0.3364 -0.2934,-0.4263 -0.2913,-1.1873 v -0.8233 l -1.0368,0.7301 c -2.5182,1.7735 -5.7623,3.3141 -8.6156,4.0918 -0.5435,0.1482 -0.987,0.2911 -0.9855,0.3175 0,0.026 0.2408,0.1777 0.5316,0.3362 0.6759,0.3683 0.9873,0.8607 0.9896,1.5648 0,1.1521 -1.0397,2.0841 -2.4706,2.2066 -0.4896,0.042 -0.568,0.071 -0.4145,0.1524 0.7388,0.393 1.5502,0.4094 2.3163,0.047 z m -3.0431,-5.0649 c 5.9241,-1.0041 11.1965,-3.8836 15.9118,-8.6904 6.2486,-6.37 10.5646,-15.7481 11.976,-26.0223 0.6204,-4.5169 0.6204,-10.4212 0,-14.9381 -0.9532,-6.9385 -3.2369,-13.5373 -6.5909,-19.0441 -5.7052,-9.3671 -14.356,-15.2737 -23.2819,-15.8962 -0.4759,-0.033 -1.1053,-0.08 -1.3988,-0.1045 -0.759,-0.063 -3.1135,0.1174 -4.607,0.3527 -5.9467,0.937 -11.79242,4.2458 -16.52932,9.3559 -5.6616,6.1078 -9.6492,14.7854 -11.1462,24.2556 -0.497,3.1441 -0.5723,4.2698 -0.5723,8.5497 0,4.2797 0.075,5.4055 0.5723,8.5495 1.6616,10.5118 6.3146,19.8705 12.9607,26.0676 4.6817,4.3658 9.89692,6.9256 15.68182,7.6974 1.567,0.2091 5.4381,0.1359 7.0238,-0.1328 z m -25.41722,-8.6055 c 0.025,-0.024 -0.182,-0.2938 -0.4608,-0.5994 -0.6656,-0.7299 -2.1009,-2.5211 -2.5448,-3.176 -0.3161,-0.4663 -0.3788,-0.5121 -0.6221,-0.4544 -0.5329,0.1262 -0.6815,0.4712 -0.3703,0.8595 0.2172,0.2709 0.1912,0.4099 -0.2193,1.1743 -0.3034,0.5651 -0.3574,0.7501 -0.3012,1.0327 0.079,0.3993 0.2628,0.4631 0.2628,0.091 0,-0.3435 0.3635,-0.8737 0.7173,-1.0464 0.3311,-0.1615 0.9702,-0.1891 1.064,-0.046 0.035,0.053 -0.01,0.1921 -0.096,0.3096 -0.6124,0.825 0.8835,2.1286 2.2261,1.9399 0.1639,-0.023 0.3188,-0.062 0.3441,-0.085 z m 44.58902,-0.1695 c 0.507,-0.2235 1.0343,-0.8449 1.0343,-1.2189 0,-0.1388 -0.075,-0.3532 -0.1662,-0.4764 -0.1971,-0.2654 -0.069,-0.3913 0.4003,-0.3937 0.6223,0 1.2928,0.6122 1.2928,1.1867 0,0.3208 0.1612,0.3291 0.2454,0.013 0.087,-0.3269 -0.013,-0.677 -0.36,-1.2605 -0.3291,-0.5535 -0.36,-0.7801 -0.1431,-1.0507 0.2177,-0.2717 0.1885,-0.5863 -0.07,-0.7574 -0.3499,-0.2312 -0.5513,-0.1803 -0.8021,0.2026 -0.3303,0.5043 -2.0654,2.6725 -2.6499,3.3113 -0.2724,0.2978 -0.4954,0.5649 -0.4954,0.5937 0,0.2116 1.1157,0.1144 1.7142,-0.1494 z m -50.52122,-0.8169 c -1.0005,-0.9441 -1.1205,-2.5726 -0.2501,-3.394 0.5552,-0.5239 1.0693,-0.6489 1.863,-0.4531 0.3429,0.085 0.6293,0.1471 0.6364,0.1388 0.01,-0.01 -0.347,-0.5769 -0.7869,-1.2636 -1.4853,-2.3189 -3.1647,-5.7025 -4.1623,-8.3863 l -0.4392,-1.1815 -0.2934,0.577 c -0.554,1.0892 -1.5921,1.4208 -2.7314,0.8724 -0.7283,-0.3507 -1.5146,-1.5008 -1.5287,-2.2361 0,-0.193 -0.019,-0.187 -0.1634,0.065 -0.1138,0.1981 -0.1482,0.4624 -0.1206,0.924 0.047,0.784 0.419,1.4256 1.0815,1.865 0.5863,0.3889 1.5177,0.4599 2.1346,0.163 0.2295,-0.1105 0.446,-0.2447 0.4811,-0.2983 0.1317,-0.201 0.245,-0.084 0.309,0.3179 0.082,0.5162 -0.124,1.023 -0.5315,1.3072 l -0.293,0.2045 0.4637,0.454 c 0.4974,0.487 0.7144,0.9867 0.7144,1.645 0,0.4729 -0.3466,0.8731 -0.7562,0.8731 -0.1785,0 -0.3017,0.082 -0.4051,0.2712 -0.082,0.1491 -0.2278,0.3328 -0.3246,0.4082 -0.1582,0.1233 -0.1203,0.143 0.375,0.1948 0.4629,0.048 0.5876,0.027 0.7792,-0.1362 0.4766,-0.4045 1.1218,-0.1792 1.7012,0.594 0.2384,0.318 0.3093,0.5284 0.3421,1.0148 l 0.041,0.6138 0.2967,-0.098 c 0.4468,-0.147 0.9698,-0.01 1.4174,0.3718 0.4779,0.4075 0.4997,0.5117 0.1072,0.5117 -0.4156,0 -1.2302,0.5514 -1.4711,0.9956 -0.5956,1.0988 -0.085,2.5817 1.0755,3.1239 0.606,0.2831 0.7769,0.2596 0.4381,-0.06 z m 55.40042,-0.041 c 0.8886,-0.5171 1.3593,-1.7465 1.0271,-2.6828 -0.255,-0.7187 -1.0265,-1.327 -1.691,-1.3331 -0.3261,0 -0.2857,-0.1235 0.1721,-0.5138 0.4512,-0.3847 0.971,-0.5186 1.4286,-0.3681 l 0.308,0.1013 v -0.4635 c 0,-0.7985 0.5212,-1.6301 1.1856,-1.8922 0.3554,-0.1401 0.5806,-0.1011 0.9011,0.1561 0.1604,0.1288 0.3206,0.1512 0.7547,0.1058 0.4952,-0.052 0.5332,-0.071 0.375,-0.1948 -0.097,-0.075 -0.2429,-0.2592 -0.3246,-0.4082 -0.1034,-0.1887 -0.2267,-0.2713 -0.4051,-0.2713 -0.1411,0 -0.369,-0.106 -0.5064,-0.2357 -0.5195,-0.4903 -0.2305,-1.7414 0.5475,-2.3699 l 0.4124,-0.3331 -0.3467,-0.2611 c -0.206,-0.155 -0.3949,-0.4127 -0.4654,-0.6346 -0.1803,-0.568 0.028,-1.3288 0.2649,-0.9672 0.035,0.054 0.2516,0.1879 0.4812,0.2983 0.6169,0.297 1.5483,0.2258 2.1346,-0.1631 0.6624,-0.4392 1.0345,-1.0809 1.0815,-1.8649 0.028,-0.4616 -0.01,-0.7259 -0.1206,-0.924 -0.1447,-0.2521 -0.1597,-0.2581 -0.1634,-0.065 -0.014,0.7352 -0.8004,1.8853 -1.5288,2.2359 -1.142,0.5499 -2.1772,0.2171 -2.7346,-0.8788 l -0.2968,-0.5836 -0.2291,0.6597 c -0.9637,2.7751 -2.9544,6.7904 -4.6372,9.3534 -0.2949,0.4491 -0.5264,0.8258 -0.5146,0.8371 0.012,0.011 0.2485,-0.045 0.5258,-0.1258 0.6226,-0.1804 1.1872,-0.1121 1.6983,0.2056 1.1032,0.6858 1.1274,2.5095 0.048,3.5867 l -0.3256,0.3249 0.3054,-0.068 c 0.1679,-0.037 0.4552,-0.1554 0.6384,-0.2619 z m -65.13302,-24.3774 c -0.1982,-0.8721 0.056,-1.8077 0.6496,-2.3916 0.4589,-0.4515 0.8518,-0.6196 1.4479,-0.6196 0.5914,0 0.8184,0.095 1.396,0.5877 l 0.4134,0.3523 -0.06,-0.5283 c -0.033,-0.2907 -0.1175,-1.6631 -0.1876,-3.05 -0.1021,-2.0195 -0.1021,-3.024 0,-5.0434 0.07,-1.3868 0.1544,-2.7577 0.1874,-3.0465 l 0.06,-0.525 -0.474,0.3937 c -0.7084,0.5883 -1.5292,0.7116 -2.2649,0.3402 -0.3541,-0.1789 -0.924,-0.8393 -1.0636,-1.2324 -0.1542,-0.4345 -0.1829,-1.2676 -0.062,-1.8079 0.077,-0.3441 0.07,-0.3666 -0.082,-0.2478 -0.092,0.072 -0.2901,0.3285 -0.4408,0.5706 -0.2327,0.3735 -0.2737,0.5488 -0.2717,1.1603 0,0.8472 0.2316,1.3487 0.8265,1.8116 0.3584,0.2788 1.1997,0.5353 1.4834,0.4521 0.072,-0.021 0.2629,-0.066 0.4245,-0.099 0.2848,-0.059 0.2917,-0.052 0.2288,0.2452 -0.1189,0.561 -0.4478,0.9368 -0.9744,1.1133 l -0.4882,0.1636 0.1879,0.3903 c 0.3692,0.767 0.1367,2.0791 -0.418,2.3592 -0.1212,0.061 -0.3885,0.097 -0.594,0.08 -0.3327,-0.028 -1.2335,0.2648 -1.2335,0.4004 0,0.1357 0.9008,0.428 1.2335,0.4003 0.2055,-0.017 0.4728,0.019 0.594,0.08 0.5547,0.2803 0.7872,1.5923 0.418,2.3594 l -0.1879,0.3902 0.4882,0.1637 c 0.5283,0.1771 0.8555,0.5524 0.9757,1.1192 0.063,0.2957 0.053,0.3082 -0.178,0.237 -0.694,-0.2137 -1.7005,0.038 -2.1917,0.5482 -0.5374,0.558 -0.7719,1.5045 -0.5578,2.252 0.1099,0.3838 0.6939,1.252 0.7846,1.1664 0.025,-0.024 -0.01,-0.269 -0.069,-0.5454 z m 74.70532,-0.094 c 0.2325,-0.3733 0.2737,-0.5491 0.272,-1.1604 0,-0.7525 -0.1508,-1.157 -0.5952,-1.6184 -0.4865,-0.5053 -1.4978,-0.762 -2.1766,-0.5527 -0.3007,0.093 -0.304,-0.1198 -0.011,-0.6914 0.1623,-0.3165 0.3253,-0.4713 0.6362,-0.6046 0.2299,-0.098 0.5096,-0.1808 0.6215,-0.1827 0.1348,0 0.1619,-0.029 0.08,-0.078 -0.4274,-0.2564 -0.5651,-1.5198 -0.2394,-2.1968 0.226,-0.4697 0.5172,-0.6453 0.9597,-0.5786 0.2872,0.043 1.2719,-0.2748 1.281,-0.4138 0.01,-0.124 -0.9015,-0.4136 -1.2336,-0.3928 -0.2054,0.013 -0.4727,-0.027 -0.594,-0.088 -0.5547,-0.2802 -0.7871,-1.5922 -0.4179,-2.3593 l 0.1878,-0.3903 -0.4881,-0.1635 c -0.5284,-0.1771 -0.8556,-0.5524 -0.9757,-1.1193 -0.063,-0.2957 -0.053,-0.3082 0.1779,-0.237 0.6663,0.2052 1.5527,0.01 2.1117,-0.4727 0.5703,-0.489 0.8608,-1.549 0.6379,-2.3274 -0.107,-0.3733 -0.6929,-1.253 -0.78,-1.1709 -0.023,0.021 0.01,0.2953 0.071,0.6093 0.3383,1.7219 -1.0107,3.2703 -2.5339,2.9084 -0.2485,-0.059 -0.6313,-0.2683 -0.9018,-0.4931 l -0.47,-0.3903 0.05,0.5217 c 0.027,0.2869 0.11,1.6564 0.1835,3.0433 0.1101,2.0806 0.1101,2.9626 0,5.0433 -0.073,1.3868 -0.156,2.7564 -0.1835,3.0432 l -0.05,0.5218 0.47,-0.3905 c 0.7566,-0.6284 1.7047,-0.7243 2.3945,-0.2421 0.9562,0.6684 1.2981,1.7788 0.9532,3.0955 -0.057,0.2181 -0.047,0.2277 0.1125,0.1037 0.097,-0.075 0.2988,-0.3344 0.4495,-0.5764 z m -72.28092,-26.4728 c 0.5435,-0.9824 1.7411,-1.5687 2.6414,-1.293 0.6243,0.1911 0.9216,0.4468 1.2343,1.0616 l 0.2934,0.577 0.4392,-1.1815 c 0.9976,-2.6838 2.677,-6.0674 4.1623,-8.3861 0.4399,-0.6868 0.7941,-1.2555 0.7869,-1.2639 -0.01,-0.01 -0.2935,0.054 -0.6364,0.1391 -0.8058,0.1988 -1.3504,0.065 -1.8837,-0.4627 -0.8469,-0.838 -0.7178,-2.4515 0.2708,-3.3844 0.2483,-0.2343 0.2573,-0.2635 0.082,-0.2635 -0.2852,0 -1.0852,0.5042 -1.3437,0.8467 -0.2931,0.3885 -0.5224,1.0187 -0.5224,1.4357 0,0.8985 0.6164,1.7326 1.4447,1.955 0.2412,0.065 0.4759,0.1479 0.5215,0.1848 0.1207,0.097 -0.7179,0.7443 -1.0553,0.8143 -0.1578,0.033 -0.4451,0.018 -0.6386,-0.032 l -0.3518,-0.092 -0.041,0.6117 c -0.033,0.4844 -0.1039,0.6953 -0.342,1.013 -0.5753,0.7676 -1.2313,0.9912 -1.7124,0.584 -0.1792,-0.1518 -0.313,-0.1737 -0.768,-0.1263 -0.4953,0.052 -0.5332,0.071 -0.375,0.1947 0.097,0.075 0.2428,0.2592 0.3246,0.4083 0.1034,0.1886 0.2266,0.2712 0.4051,0.2712 0.4095,0 0.7562,0.4001 0.7562,0.873 0,0.6584 -0.2171,1.157 -0.7144,1.645 l -0.4638,0.454 0.2931,0.2045 c 0.4074,0.2843 0.6134,0.791 0.5314,1.3074 -0.064,0.4022 -0.1772,0.5189 -0.3089,0.3179 -0.035,-0.054 -0.2516,-0.1879 -0.4811,-0.2985 -0.6169,-0.2969 -1.5483,-0.2257 -2.1347,0.1632 -0.8897,0.59 -1.3203,1.7611 -0.9914,2.6961 l 0.1303,0.3705 0.1177,-0.4805 c 0.065,-0.264 0.2134,-0.6532 0.3303,-0.8644 z m 70.04372,0.1433 c -0.047,-0.7801 -0.4072,-1.3993 -1.0807,-1.856 -0.5874,-0.3985 -1.5106,-0.4729 -2.1354,-0.1721 -0.2296,0.1105 -0.4461,0.2447 -0.4812,0.2984 -0.2368,0.3616 -0.4452,-0.3992 -0.2649,-0.9672 0.07,-0.2213 0.2593,-0.4795 0.4636,-0.6335 l 0.345,-0.2596 -0.441,-0.3663 c -0.4945,-0.4108 -0.7652,-1.0066 -0.7652,-1.684 0,-0.4915 0.3391,-0.8911 0.7562,-0.8911 0.1784,0 0.3017,-0.082 0.4051,-0.2712 0.082,-0.1491 0.2278,-0.3329 0.3246,-0.4083 0.1582,-0.1232 0.1202,-0.1429 -0.375,-0.1946 -0.4341,-0.045 -0.5943,-0.023 -0.7547,0.1057 -0.3205,0.2572 -0.5457,0.2961 -0.9011,0.1561 -0.663,-0.2616 -1.1856,-1.0937 -1.1856,-1.8881 v -0.4596 l -0.3547,0.1028 c -0.2563,0.074 -0.4618,0.072 -0.7409,-0.01 -0.4477,-0.1266 -1.1621,-0.7563 -0.9317,-0.8211 1.1013,-0.3098 1.5813,-0.6809 1.8093,-1.3991 0.3955,-1.2456 -0.4057,-2.6613 -1.6652,-2.9425 l -0.3054,-0.068 0.3199,0.3248 c 1.0031,1.0189 1.1076,2.532 0.232,3.3584 -0.5429,0.5123 -1.0781,0.6398 -1.8752,0.4467 -0.3359,-0.081 -0.6184,-0.1412 -0.6276,-0.133 -0.01,0.01 0.2243,0.3823 0.5189,0.8315 1.6907,2.5766 3.6653,6.5594 4.6372,9.3533 l 0.2295,0.6597 0.2968,-0.5836 c 0.5589,-1.099 1.5923,-1.4288 2.7422,-0.8752 0.7081,0.3408 1.5074,1.514 1.5212,2.2324 0,0.193 0.019,0.187 0.1634,-0.065 0.1137,-0.1982 0.1482,-0.4624 0.1206,-0.9241 z m -59.63512,-11.7908 c 0.6719,-0.9176 1.7055,-2.1944 2.3747,-2.9334 0.2768,-0.3057 0.4704,-0.5867 0.4303,-0.6244 -0.04,-0.038 -0.3179,-0.063 -0.6171,-0.056 -0.7179,0.016 -1.4097,0.3376 -1.7887,0.8314 -0.3305,0.4306 -0.3747,0.785 -0.1376,1.1044 0.087,0.1175 0.1303,0.2567 0.096,0.3096 -0.094,0.1432 -0.7329,0.1156 -1.064,-0.046 -0.3538,-0.1727 -0.7173,-0.703 -0.7173,-1.0465 0,-0.3716 -0.1834,-0.3077 -0.2628,0.091 -0.056,0.2826 0,0.4676 0.3012,1.0327 0.4151,0.7727 0.4358,0.8915 0.2092,1.1968 -0.088,0.1182 -0.145,0.3105 -0.1272,0.4272 0.03,0.1961 0.3953,0.4525 0.6498,0.4558 0.06,0 0.3539,-0.3336 0.6538,-0.743 z m 49.65402,0.5948 c 0.2588,-0.1711 0.288,-0.4857 0.07,-0.7574 -0.221,-0.2757 -0.1879,-0.4552 0.22,-1.1922 0.3054,-0.5516 0.3576,-0.7276 0.3008,-1.0133 -0.08,-0.4005 -0.2631,-0.4654 -0.2631,-0.093 0,0.5745 -0.6705,1.1897 -1.2928,1.1866 -0.4694,0 -0.5974,-0.1282 -0.4004,-0.3937 0.2446,-0.3295 0.2037,-0.6799 -0.13,-1.1146 -0.3812,-0.4966 -1.0532,-0.8066 -1.7839,-0.8227 -0.3073,-0.01 -0.5894,0.016 -0.6268,0.052 -0.037,0.035 0.1609,0.3144 0.4406,0.6201 0.5951,0.6502 2.3293,2.8161 2.6632,3.3257 0.2507,0.383 0.4522,0.4339 0.802,0.2026 z m -41.42522,-8.8191 c 2.5447,-1.846 6.09002,-3.5606 9.00412,-4.3549 0.5435,-0.1481 0.9869,-0.291 0.9854,-0.3174 0,-0.026 -0.2407,-0.1777 -0.5316,-0.3362 -0.9261,-0.5047 -1.2481,-1.4744 -0.7993,-2.4069 0.3698,-0.7682 1.4684,-1.381798 2.4918,-1.391598 h 0.4209 l -0.3563,-0.1816 c -0.7587,-0.3866 -1.7335,-0.305 -2.5488,0.2134 -0.9785,0.622398 -1.2705,1.991998 -0.5969,2.800098 0.2576,0.3091 0.2504,0.3275 -0.1559,0.3994 -0.4842,0.086 -1.0094,-0.1009 -1.3678,-0.4861 l -0.3026,-0.3252 -0.4431,0.4181 c -0.84372,0.7962 -2.20222,0.9255 -2.57512,0.2451 -0.084,-0.1539 -0.1533,-0.3415 -0.1533,-0.417 0,-0.075 -0.1392,-0.1916 -0.3094,-0.2581 -0.1702,-0.066 -0.3668,-0.1983 -0.4369,-0.2928 -0.1084,-0.146 -0.1269,-0.09 -0.1232,0.3735 0,0.3593 0.065,0.6262 0.1824,0.7828 0.2919,0.3891 0.229,0.8136 -0.1846,1.2455 -0.4547,0.475 -1.0985,0.7744 -1.6652,0.7744 -0.3807,0 -0.4259,0.022 -0.3515,0.1681 0.047,0.092 0.086,0.3877 0.087,0.656 0,0.3881 -0.056,0.56 -0.2832,0.8405 -0.1569,0.194 -0.3172,0.3526 -0.3563,0.3524 -0.039,-2e-4 -0.1857,-0.2256 -0.3257,-0.501 -0.1403,-0.276 -0.43,-0.6314 -0.6456,-0.7921 -0.3639,-0.2713 -0.4497,-0.2916 -1.2296,-0.2916 -0.7554,0 -0.8875,0.029 -1.3366,0.2907 -0.5414,0.3159 -1.0152,0.9383 -1.1299,1.4845 l -0.07,0.3342 0.3158,-0.3394 c 0.7607,-0.8176 2.1655,-1.1735 3.0971,-0.7846 0.2579,0.1077 0.591,0.3531 0.7556,0.5567 0.2701,0.3342 0.2943,0.43 0.2943,1.1642 0,0.44 0.015,0.8 0.033,0.8 0.018,0 0.2931,-0.1886 0.6108,-0.419 z m 32.74442,-0.381 c 0,-0.7337 0.024,-0.8301 0.2936,-1.1632 0.6256,-0.7739 1.7984,-0.9488 2.8952,-0.4315 0.3441,0.1622 0.7636,0.4531 0.9324,0.6463 0.2475,0.2833 0.3067,0.3145 0.3059,0.1613 0,-0.3978 -0.491,-1.1858 -0.9157,-1.4762 -0.5858,-0.4004 -1.032,-0.5186 -1.7872,-0.4732 -0.8057,0.049 -1.2983,0.3763 -1.6733,1.114 -0.1399,0.2753 -0.2865,0.5008 -0.3256,0.5009 -0.039,2e-4 -0.1995,-0.1583 -0.3563,-0.3523 -0.2268,-0.2805 -0.2847,-0.4525 -0.2832,-0.8405 10e-4,-0.2684 0.038,-0.558 0.082,-0.6437 0.068,-0.1316 -0.01,-0.1624 -0.4739,-0.1991 -1.3165,-0.103 -2.2942,-1.239 -1.7225,-2.0013 0.113,-0.1505 0.1782,-0.4151 0.1782,-0.7226 v -0.4851 l -0.3342,0.214 c -0.1838,0.1177 -0.369,0.2279 -0.4115,0.2449 -0.043,0.017 -0.1458,0.2039 -0.2293,0.4152 -0.1232,0.3115 -0.2288,0.4096 -0.5572,0.5177 -0.6141,0.2022 -1.4664,-0.056 -2.072,-0.6275 -0.3764,-0.3552 -0.4689,-0.4025 -0.5429,-0.2778 -0.2817,0.4751 -0.9862,0.7826 -1.56,0.681 -0.4063,-0.072 -0.4135,-0.09 -0.1559,-0.3994 0.1065,-0.1278 0.2472,-0.4428 0.3126,-0.7001 0.4386,-1.725398 -1.7789,-3.170698 -3.5094,-2.287298 l -0.3053,0.1559 h 0.509 c 0.5836,0.01 1.4699,0.3536 1.918,0.753398 0.4465,0.3985 0.678,0.9048 0.6761,1.4791 0,0.704 -0.3138,1.1965 -0.9897,1.5648 -0.2908,0.1585 -0.53,0.3098 -0.5315,0.3362 0,0.026 0.4419,0.1693 0.9854,0.3174 2.8409,0.7743 6.084,2.3113 8.5401,4.0474 0.5534,0.3911 1.029,0.7146 1.057,0.7188 0.028,0 0.051,-0.3523 0.051,-0.7922 z"
         style="fill:#000000;stroke-width:1" />
      <ellipse
         style="fill:#000000;fill-opacity:1;stroke-width:0.383904;stroke-dasharray:0.383904, 1.15169"
         id="path24-2"
         cx="53.675438"
         cy="146.46738"
         rx="33.523117"
         ry="43.574059" />
      <path
         id="ellipse24-4-2"
         style="fill:none;fill-opacity:1;stroke:#0000ff;stroke-width:1.884;stroke-dasharray:none;stroke-opacity:1"
         d="m 52.695312,105.04688 c -7.476547,0.29157 -14.409947,4.27123 -19.299552,9.82592 -5.256211,5.89232 -8.516256,13.37828 -10.069588,21.03736 -1.862805,9.43111 -1.250301,19.33522 2.025051,28.41133 2.957936,8.145 8.213663,15.75308 15.807056,20.14095 4.121014,2.43628 9.017644,3.68263 13.757737,3.41647 4.806931,-0.23227 9.604103,-2.0718 13.549681,-4.89411 3.801113,-2.6553 6.926014,-6.22517 9.353576,-10.07897 4.575241,-7.27975 6.869796,-15.8426 7.202347,-24.37481 0.2915,-7.636 -0.999813,-15.32136 -4.012211,-22.39323 -2.990935,-7.02331 -7.849468,-13.48903 -14.435572,-17.43437 -4.123738,-2.49601 -9.042827,-3.86433 -13.878525,-3.65654 z" />
    </g>
  </g>
</svg>
